<svg xmlns:dc="http://purl.org/dc/elements/1.1/" xmlns:cc="http://creativecommons.org/ns#" xmlns:rdf="http://www.w3.org/1999/02/22-rdf-syntax-ns#" xmlns:svg="http://www.w3.org/2000/svg" xmlns="http://www.w3.org/2000/svg" xmlns:sodipodi="http://sodipodi.sourceforge.net/DTD/sodipodi-0.dtd" xmlns:inkscape="http://www.inkscape.org/namespaces/inkscape" viewBox="0 0 71.552902 88.50032625" version="1.1" x="0px" y="0px"><g transform="translate(484.54295,-506.81543)"><path style="" d="m -483.37975,506.81543 c -0.6481,0 -1.1632,0.51498 -1.1632,1.16325 l 0,20.54384 c 0,0.6481 0.5238,1.16316 1.1632,1.16316 l 20.5267,0 c 0.6394,0 1.1632,-0.51498 1.1632,-1.16316 l 0,-20.54384 c 0,-0.6481 -0.5238,-1.16325 -1.1632,-1.16325 l -20.5267,0 z m 48.6826,0 c -0.6393,0 -1.1632,0.51498 -1.1632,1.16325 l 0,20.54384 c 0,0.6481 0.5239,1.16316 1.1632,1.16316 l 20.5268,0 c 0.6393,0 1.1803,-0.51498 1.1803,-1.16316 l 0,-20.54384 c 0,-0.6481 -0.541,-1.16325 -1.1803,-1.16325 l -20.5268,0 z m -23.2636,1.16325 0,6.92773 6.8764,0 0,6.85942 -6.8764,0 0,6.92773 0,6.91066 -6.8936,0 0,4.56725 -4.7383,0 -0.5131,0 -6.3633,0 0,-6.85933 -6.9107,0 0,6.91065 6.8594,0 0,5.83297 0,1.04344 0,5.8673 6.9278,0 0,-5.8673 6.4146,0 0,-4.56716 5.2343,0 0,-6.92782 6.9107,0 0,3.47249 13.7529,0 0,17.19115 -6.8423,0 0,-6.80801 -6.8764,0 0,-6.89357 -6.9278,0 0,6.91065 6.8936,0 0,6.82518 -6.8423,0 0,20.15042 6.9107,0 0,-6.61989 6.8422,0 0,-6.65412 6.9278,0 0,-6.84226 6.8252,0 0,-10.29758 6.8935,0 0,6.89358 9.3055,0 0,-6.92782 -9.2712,0 0,-6.89357 -6.9107,0 0,-0.035 -6.8423,0 0,-6.92773 -13.8384,0 0,-3.45532 0,-6.92782 4.9606,0 1.8987,0 5.0291,0 0,-6.92773 -5.0291,0 -1.8987,0 -4.9606,0 0,-6.85942 -6.9278,0 z m -24.2558,1.18024 18.2004,0 0,18.20044 -18.2004,0 0,-18.20044 z m 48.6826,0 18.2004,0 0,18.20044 -18.2004,0 0,-18.20044 z m -46.0655,2.61718 0,12.949 12.9661,0 0,-12.949 -12.9661,0 z m 48.6998,0 0,12.949 12.9489,0 0,-12.949 -12.9489,0 z m 7.4409,20.37279 0,6.92782 6.9107,0 0,-6.92782 -6.9107,0 z m -59.921,22.61363 c -0.6481,0 -1.1632,0.51498 -1.1632,1.16325 l 0,20.52676 c 0,0.63934 0.5238,1.16316 1.1632,1.16316 l 20.5267,0 c 0.6394,0 1.1632,-0.52373 1.1632,-1.16316 l 0,-20.52676 c 0,-0.63934 -0.5238,-1.16325 -1.1632,-1.16325 l -20.5267,0 z m 32.4323,1.60799 6.8422,0 0,6.55139 -6.8422,0 0,-6.55139 z m -31.2691,0.71816 18.2004,0 0,18.20035 -18.2004,0 0,-18.20035 z m 47.8444,2.36057 0,6.92773 6.4831,0 0,10.38314 6.808,0 0.1197,0 6.791,0 0,-6.92773 -6.791,0 0,-10.34899 -6.483,0 0,-0.035 -6.9278,0 z m -45.2273,0.25661 0,12.96608 12.9661,0 0,-12.96608 -12.9661,0 z m 35.4942,10.12653 0,6.92782 6.9107,0 0,-6.92782 -6.9107,0 z" fill="#000000"/></g></svg>